<svg width="1200" height="420" viewBox="0 0 1200 420" fill="none" xmlns="http://www.w3.org/2000/svg">
  <defs>
    <linearGradient id="bg" x1="0" y1="0" x2="1200" y2="420" gradientUnits="userSpaceOnUse">
      <stop stop-color="#0F172A"/>
      <stop offset="1" stop-color="#1D4ED8"/>
    </linearGradient>
    <linearGradient id="card" x1="0" y1="0" x2="1" y2="1">
      <stop stop-color="#FFFFFF" stop-opacity="0.96"/>
      <stop offset="1" stop-color="#E2E8F0" stop-opacity="0.96"/>
    </linearGradient>
  </defs>

  <rect x="0" y="0" width="1200" height="420" rx="28" fill="url(#bg)"/>

  <circle cx="1050" cy="80" r="120" fill="#60A5FA" fill-opacity="0.22"/>
  <circle cx="1020" cy="320" r="160" fill="#22D3EE" fill-opacity="0.18"/>

  <text x="64" y="92" fill="#E2E8F0" font-family="Segoe UI, Arial, sans-serif" font-size="22" font-weight="600">Streamlit Analytics App</text>
  <text x="64" y="152" fill="#FFFFFF" font-family="Segoe UI, Arial, sans-serif" font-size="54" font-weight="800">NYC Collision Intelligence</text>
  <text x="64" y="206" fill="#BFDBFE" font-family="Segoe UI, Arial, sans-serif" font-size="30" font-weight="700">Data-driven road safety dashboard</text>

  <g transform="translate(64 252)">
    <rect width="232" height="112" rx="16" fill="url(#card)"/>
    <text x="18" y="38" fill="#1E293B" font-family="Segoe UI, Arial, sans-serif" font-size="16" font-weight="600">KPI Cards</text>
    <text x="18" y="76" fill="#0F172A" font-family="Segoe UI, Arial, sans-serif" font-size="28" font-weight="800">8,993</text>
    <text x="18" y="96" fill="#334155" font-family="Segoe UI, Arial, sans-serif" font-size="13" font-weight="600">Total collisions</text>
  </g>

  <g transform="translate(320 252)">
    <rect width="232" height="112" rx="16" fill="url(#card)"/>
    <text x="18" y="38" fill="#1E293B" font-family="Segoe UI, Arial, sans-serif" font-size="16" font-weight="600">Geospatial View</text>
    <rect x="18" y="50" width="194" height="44" rx="10" fill="#93C5FD"/>
    <circle cx="56" cy="72" r="7" fill="#DC2626"/>
    <circle cx="94" cy="66" r="5" fill="#DC2626"/>
    <circle cx="148" cy="78" r="6" fill="#DC2626"/>
    <circle cx="176" cy="70" r="4" fill="#DC2626"/>
  </g>

  <g transform="translate(576 252)">
    <rect width="232" height="112" rx="16" fill="url(#card)"/>
    <text x="18" y="38" fill="#1E293B" font-family="Segoe UI, Arial, sans-serif" font-size="16" font-weight="600">Time Patterns</text>
    <rect x="18" y="82" width="18" height="12" rx="3" fill="#60A5FA"/>
    <rect x="44" y="72" width="18" height="22" rx="3" fill="#3B82F6"/>
    <rect x="70" y="58" width="18" height="36" rx="3" fill="#2563EB"/>
    <rect x="96" y="66" width="18" height="28" rx="3" fill="#1D4ED8"/>
    <rect x="122" y="48" width="18" height="46" rx="3" fill="#1E40AF"/>
    <rect x="148" y="76" width="18" height="18" rx="3" fill="#3B82F6"/>
    <rect x="174" y="62" width="18" height="32" rx="3" fill="#2563EB"/>
  </g>

  <g transform="translate(832 252)">
    <rect width="304" height="112" rx="16" fill="url(#card)"/>
    <text x="18" y="38" fill="#1E293B" font-family="Segoe UI, Arial, sans-serif" font-size="16" font-weight="600">Risk &amp; Causes</text>
    <rect x="18" y="52" width="240" height="12" rx="6" fill="#C7D2FE"/>
    <rect x="18" y="70" width="198" height="12" rx="6" fill="#A5B4FC"/>
    <rect x="18" y="88" width="154" height="12" rx="6" fill="#818CF8"/>
  </g>
</svg>
